<svg data-v-423bf9ae="" xmlns="http://www.w3.org/2000/svg" viewBox="0 0 104.28764922279808 60" class="icon"><!----><!----><!----><!----><g data-v-423bf9ae="" id="e9861942-4590-45a2-ae23-566ca3fce6db" transform="matrix(0.3633716106414795,0,0,0.3633716106414795,-0.000004410743713378906,0.04829372838139534)" stroke="none" fill="black"><path d="M128 94c-61 11-63 80-128 70 40-1 57-53 96-68-26 8-31 26-74 11 44 8 33-27 106-13zm72-39c2 0 3-1 3-5 15 6 17 15 18 17 4 5 6 10 6 13-14-10-18-5-36-3 4-7 6-14 9-22zM76 3c28 37 52 41 73 54-1 6-1 12-2 18 0 13-3 15-15 18-12-3-22-9-30-22 8 4 18 8 30 9-18-8-45-20-51-47 10 11 21 17 36 22C83 35 76 22 76 3zm211 4c-115 26-82 58-113 87-30 28-46 6-74 23 9-17 30-18 41-23 9-4 10-12 10-19 0-17 2-34 18-48-3 8-6 19-5 31 6-19 22-66 81-57-31 2-49 22-59 38C222 0 267 1 287 7z"></path></g><!----></svg>