<?xml version="1.0" encoding="UTF-8" standalone="no"?><!-- Generator: Gravit.io --><svg xmlns="http://www.w3.org/2000/svg" xmlns:xlink="http://www.w3.org/1999/xlink" style="isolation:isolate" viewBox="552.878 348.945 198.553 188.032" width="198.553pt" height="188.032pt"><defs><clipPath id="_clipPath_0BzfZmVq3WBl9UqKsLCWvrhhwxBQxFfv"><rect x="552.878" y="348.945" width="198.553" height="188.032"/></clipPath></defs><g clip-path="url(#_clipPath_0BzfZmVq3WBl9UqKsLCWvrhhwxBQxFfv)"><g><path d=" M 552.878 536.912 L 552.878 348.945 L 641.188 348.945 L 641.188 348.945 Q 673.511 348.945 698.618 361.499 L 698.618 361.499 L 698.618 361.499 Q 723.726 374.053 737.579 396.996 L 737.579 396.996 L 737.579 396.996 Q 751.431 419.939 751.431 449.953 L 751.431 449.953 L 751.431 449.953 Q 751.431 479.668 737.853 502.453 Q 736.226 498.898 733.7 496.051 L 733.7 496.051 L 733.7 496.051 Q 726.6 488.051 716.6 484.151 L 716.6 484.151 L 716.6 484.151 Q 706.6 480.251 691 476.651 L 691 476.651 L 691 476.651 Q 679.6 473.851 673 471.651 L 673 471.651 L 673 471.651 Q 666.4 469.451 662.1 465.651 L 662.1 465.651 L 662.1 465.651 Q 657.8 461.851 657.8 455.851 L 657.8 455.851 L 657.8 455.851 Q 657.8 447.251 665.3 442.051 L 665.3 442.051 L 665.3 442.051 Q 672.8 436.851 688.2 436.851 L 688.2 436.851 L 688.2 436.851 Q 697.6 436.851 707.6 439.651 L 707.6 439.651 L 707.6 439.651 Q 717.6 442.451 726.8 447.851 L 726.8 447.851 L 735 427.651 L 735 427.651 Q 726 421.651 713.6 418.451 L 713.6 418.451 L 713.6 418.451 Q 701.2 415.251 688.4 415.251 L 688.4 415.251 L 688.4 415.251 Q 670 415.251 657.3 420.851 L 657.3 420.851 L 657.3 420.851 Q 644.6 426.451 638.3 435.951 L 638.3 435.951 L 638.3 435.951 Q 632 445.451 632 457.051 L 632 457.051 L 632 457.051 Q 632 470.851 639.1 478.951 L 639.1 478.951 L 639.1 478.951 Q 646.2 487.051 656.1 490.851 L 656.1 490.851 L 656.1 490.851 Q 666 494.651 682 498.451 L 682 498.451 L 682 498.451 Q 693.4 501.251 700 503.451 L 700 503.451 L 700 503.451 Q 706.6 505.651 710.9 509.551 L 710.9 509.551 L 710.9 509.551 Q 715.2 513.451 715.2 519.451 L 715.2 519.451 L 715.2 519.451 Q 715.2 527.651 707.5 532.651 L 707.5 532.651 L 707.5 532.651 Q 700.022 537.507 552.878 536.912 Z " fill-rule="evenodd" fill="rgb(255,255,255)"/></g></g></svg>