<svg id="Layer_1" data-name="Layer 1" xmlns="http://www.w3.org/2000/svg" viewBox="0 0 339.56 135.16"><defs><style>.cls-1{fill:#ffaa4d;}.cls-2{fill:#ef3340;}</style></defs><title>gabbi-logo-white-red</title><path class="cls-1" d="M42.49,70.35A19.28,19.28,0,0,0,45,70.11c4.53-.68,7.51-5.15,7.26-10.6a9.52,9.52,0,0,0-19,0c-.29,6.39,3.49,10.85,9.26,10.84M30.75,99.75a2.44,2.44,0,0,0-2.47,1.13c-3.13,3.73-2.15,8.56,2.65,10.63,4.32,2.46,16.48,2.13,18.7,2,9.74-.76,10.2-7.62,10.2-7.62.39-3-3.42-3.1-3.42-3.1s-11-.92-15.1-1.54S32.62,100,30.75,99.75m46.39-55.1L67.32,47a20.34,20.34,0,0,1,4.2,13.65C71,69.39,65.86,74.84,58.2,78c-8.82,3.67-18,3.62-27.17,1.46l-1.62-.39c-1.21,2.56-1,4.09,1.47,4.82a57.51,57.51,0,0,0,11.43,2c5.63.47,11.32.25,16.94.78,5.15.48,10.24,1.72,14.28,5.26,7.58,6.63,7.63,19.27.31,26.87-5.83,6-13.19,8.8-21.27,9.92-9.77,1.35-19.43.85-28.75-2.66a21.56,21.56,0,0,1-11.47-9.56C8.57,109.9,9.69,102,15.15,96a38,38,0,0,1,3.2-2.82c-6.42-5.65-7.65-14.75.13-21.13-4.91-6.54-5.86-13.54-2.66-20.81,3-6.89,8.94-10.69,15.93-12.52a42.61,42.61,0,0,1,25.53,1A3.33,3.33,0,0,0,60,39.07a32.87,32.87,0,0,1,14.81-7.31s.87-.37,1.28,1.22c.34,1.34,2.13,6.34,1.66,10.19-.14,1.08-.28,1.31-.61,1.48"/><path class="cls-1" d="M189.71,85.33a27.08,27.08,0,0,0,3.4-.6c10.36-3.18,13.53-18,5.61-26.13-4.71-4.83-11.67-5.42-16.65-1.21s-6.69,9.76-5.38,16.15c1.42,6.93,6.73,11.64,13,11.79M175.5,100.92s-1.64.64-7.87.63a57.17,57.17,0,0,1-9.17-.67c-1.13-.1-1.07-.8-1.07-.8V14.23s-.11-.43.86-.78c.61-.22,9.75-2.26,16.94,0,.47.06.94.27.92.78V46.47c1.6-1.24,3.64-2.87,5.72-4.45,9.42-7.12,22.4-6,30.87,2.65,6.25,6.38,9.08,14.17,9.54,22.94s-1.42,17-6.67,24.28c-8.47,11.72-24.63,14.22-35.17,5.39a51.11,51.11,0,0,1-4.13-4.41v7.63c0,.25-.78.41-.78.41"/><path class="cls-1" d="M122.22,74.37c-5.44-1.1-11.82-.59-16,1.22-3.92,1.69-5.6,4.82-4.57,8.53.85,3.08,4,4.76,8,4.23,6.37-.86,12.06-7.11,12.6-14m25,25.05a2.18,2.18,0,0,1-1.26,1.48c-4.2,1.58-8.53,2.33-12.95,1.09-5-1.4-7.28-5.2-8.52-10.3-.62.72-1.09,1.22-1.5,1.76-9,11.92-25.9,10.66-33.41,4.81-6.11-4.76-8.23-11.19-7.22-18.58S88.36,68.36,95,66c7.85-2.76,15.95-3.06,24.13-2.71l2.88.13c.69-5.29-1.4-9.49-5.15-10.71-5.52-1.8-11.29.3-13.6,5.25-.88,1.89-1.69,2.31-3.72,1.8,0,0-11.15-2.7-13.27-3.39s-1.56-1.9-1.56-1.9c2.25-6.69,7-11.34,13.46-14.12a38.29,38.29,0,0,1,28.25-1c9.53,3.27,13.91,10.79,14.71,20.35.6,7.2.39,14.47.56,21.71.09,3.86,1.53,5.42,5.59,5.86,0,0,.89.15.85.9s.64,6.28-.91,11.24"/><path class="cls-2" d="M316.44,36.21a11.12,11.12,0,0,1-11.52-11.41,11.37,11.37,0,0,1,11.54-11.55c6.57,0,11.4,4.89,11.4,11.57s-4.63,11.41-11.42,11.4"/><path class="cls-1" d="M264.58,85.33a27.08,27.08,0,0,0,3.4-.6c10.36-3.18,13.53-18,5.61-26.13-4.71-4.83-11.67-5.42-16.65-1.21s-6.69,9.76-5.38,16.15c1.42,6.93,6.73,11.64,13,11.79m-14.22,15.59s-1.64.64-7.87.63a57.17,57.17,0,0,1-9.17-.67c-1.13-.1-1.07-.8-1.07-.8V14.23s-.11-.43.86-.78c.61-.22,9.75-2.26,16.94,0,.47.06.94.27.92.78V46.47c1.6-1.24,3.64-2.87,5.72-4.45,9.42-7.12,22.4-6,30.87,2.65,6.24,6.38,9.08,14.17,9.55,22.94s-1.42,17-6.67,24.28c-8.47,11.72-24.63,14.22-35.17,5.39a51.11,51.11,0,0,1-4.13-4.41v7.63c0,.25-.78.41-.78.41"/><path class="cls-1" d="M316.11,101c4.85,0,8.85-.16,9.14-.2.66-.08.66-1.33.66-1.33V45.12c0-1.12-1-.67-1-.67A30,30,0,0,1,316,45.89h.53a30,30,0,0,1-8.91-1.44s-1-.46-1,.67v54.4s0,1.25.66,1.33c.29,0,4.3.19,9.14.2Z"/></svg>