<svg data-v-423bf9ae="" xmlns="http://www.w3.org/2000/svg" viewBox="0 0 624 90" class="iconLeft"><!----><!----><!----><g data-v-423bf9ae="" id="20151ce7-a7d8-4e9b-93b2-4ba8c92c2479" fill="black" transform="matrix(6.269592676418792,0,0,6.269592676418792,109.16992209072862,-11.081504577238256)"><path d="M9.38 13.59L9.38 4.36L7.48 4.36L7.48 9.97L2.06 4.29L1.37 4.29L1.37 13.52L3.27 13.52L3.27 8.00L8.68 13.59ZM16.16 4.16C13.54 4.16 11.36 6.11 11.36 8.94C11.36 11.77 13.54 13.73 16.16 13.73C18.79 13.73 20.95 11.77 20.95 8.94C20.95 6.11 18.79 4.16 16.16 4.16ZM16.16 5.95C17.80 5.95 19.00 7.23 19.00 8.94C19.00 10.65 17.80 11.92 16.16 11.92C14.52 11.92 13.30 10.65 13.30 8.94C13.30 7.23 14.52 5.95 16.16 5.95ZM31.45 13.52L34.54 4.36L32.38 4.36L30.65 10.14L28.75 4.36L27.48 4.36L25.55 10.14L23.86 4.36L21.70 4.36L24.75 13.52L26.06 13.52L28.10 7.63L30.13 13.52ZM40.13 11.81L40.82 13.52L43.05 13.52L38.79 4.29L37.84 4.29L33.58 13.52L35.81 13.52L36.50 11.81ZM39.47 10.20L37.17 10.20L38.32 7.40ZM52.60 4.36L50.71 4.36L50.71 8.09L46.46 8.09L46.46 4.36L44.56 4.36L44.56 13.52L46.46 13.52L46.46 9.80L50.71 9.80L50.71 13.52L52.60 13.52ZM60.65 11.81L61.35 13.52L63.57 13.52L59.31 4.29L58.37 4.29L54.10 13.52L56.33 13.52L57.03 11.81ZM59.99 10.20L57.70 10.20L58.84 7.40ZM66.98 11.81L66.98 4.36L65.08 4.36L65.08 13.52L71.56 13.52L71.56 11.81ZM79.11 11.81L79.80 13.52L82.03 13.52L77.77 4.29L76.82 4.29L72.56 13.52L74.79 13.52L75.48 11.81ZM78.45 10.20L76.15 10.20L77.30 7.40Z"></path></g><!----><g data-v-423bf9ae="" id="0db4a19a-1599-4753-b1d8-be5a82bd92b1" transform="matrix(1.2190497606487611,0,0,1.2190497606487611,-10.938263251657837,-14.703073870927923)" stroke="none" fill="black"><path d="M55.894 49.046v1.992c0 2.509 1.142 3.675 3.328 3.675h2.757c2.606 0 4.379 2.119 4.379 4.375v2.318c0 2.509-1.137 4.021-3.795 4.021h-3.196c-2.796 0-4.253-1.278-4.253-3.889V59.38c0-2.059-1.479-3.41-3.281-3.41h-4.759c-2.38 0-2.959 1.608-2.959 3.41v4.249c0 2.252 1.351 3.024 3.088 3.024h2.931c3.31 0 4.9 1.452 4.9 3.77v1.601c0 2.634 1.498 3.632 3.881 3.632h4.915c2.433 0 3.622-1.284 3.622-3.479v-1.796c0-3.023 1.676-3.988 4.893-3.988h3.384c1.866 0 2.725-1.158 2.725-2.702v-6.24c0-2.058-1.158-3.023-3.409-3.023h-4.054c-2.419 0-4.588-1.829-4.588-5.21v-1.992c0-2.509-1.142-3.675-3.329-3.675h-2.757c-2.606 0-4.379-2.118-4.379-4.374v-2.318c0-2.509 1.138-4.021 3.796-4.021h3.195c2.796 0 4.254 1.278 4.254 3.889v2.158c0 2.059 1.479 3.409 3.281 3.409h4.758c2.38 0 2.959-1.608 2.959-3.409v-4.249c0-2.251-1.351-3.023-3.088-3.023h-2.931c-3.31 0-4.9-1.452-4.9-3.77v-1.516c0-2.633-1.425-3.717-3.808-3.717h-4.988c-2.433 0-3.622 1.284-3.622 3.48v1.795c0 3.023-1.676 3.988-4.893 3.988h-3.385c-1.865 0-2.724 1.158-2.724 2.702v6.24c0 2.059 1.157 3.024 3.41 3.024h4.052c2.421-.003 4.59 1.826 4.59 5.207zM86.07 54.482a3.521 3.521 0 0 0 3.521-3.521v-2.688a3.521 3.521 0 0 0-3.521-3.522h-2.688a3.522 3.522 0 0 0-3.521 3.522v2.688a3.521 3.521 0 0 0 3.521 3.521h2.688z"></path><path d="M36.547 31.871h3.008c2.251 0 3.409-.965 3.409-3.023v-1.974c.113-3.194 2.224-4.658 4.578-4.658h3.008c2.253 0 3.41-.965 3.41-3.023v-4.151c0-1.544-.858-2.702-2.724-2.702h-5.695c-1.846 0-2.631.855-2.631 2.782v2.434c0 2.195-1.681 4.253-4.171 4.364h-4.194c-1.845 0-2.631.855-2.631 2.782v2.508c0 2.256-1.771 4.375-4.379 4.375h-2.757c-2.188 0-3.329 1.165-3.329 3.674v3.071c0 3.381-2.168 5.21-4.588 5.21h-4.054c-2.251 0-3.409.965-3.409 3.023v6.766c0 2.059 1.158 3.023 3.409 3.023h4.054c2.42 0 4.588 1.049 4.588 4.431v2.412c0 2.509 1.142 3.674 3.329 3.674h2.757c2.607 0 4.379 2.119 4.379 4.375v2.539c0 1.927.786 2.782 2.631 2.782h4.213l-.021.024c2.491.11 4.171 2.169 4.171 4.364v2.433c0 1.927.785 2.782 2.631 2.782h5.694c1.866 0 2.725-1.158 2.725-2.702v-4.151c0-2.059-1.158-3.024-3.409-3.024H47.54c-2.348 0-4.453-1.457-4.576-4.633v-2.053c0-2.059-1.158-3.023-3.409-3.023h-3.008c-2.421 0-4.59-1.828-4.59-5.209V59.74c0-2.509 1.143-3.674 3.33-3.674h2.756c2.607 0 4.38-2.119 4.38-4.375V48.2c0-2.256-1.772-4.375-4.38-4.375h-2.756c-2.188 0-3.33-1.166-3.33-3.674v-3.36c0-3.38 2.169-4.92 4.59-4.92z"></path></g><!----></svg>