<?xml version="1.0" encoding="UTF-8" standalone="no"?><!-- Generator: Gravit.io --><svg xmlns="http://www.w3.org/2000/svg" xmlns:xlink="http://www.w3.org/1999/xlink" style="isolation:isolate" viewBox="242.483 174.404 848.448 789.596" width="848.448pt" height="789.596pt"><defs><clipPath id="_clipPath_J6hGKMTljDw5LfOh9WKITYG1WUiXvZVF"><rect x="242.483" y="174.404" width="848.448" height="789.596"/></clipPath></defs><g clip-path="url(#_clipPath_J6hGKMTljDw5LfOh9WKITYG1WUiXvZVF)"><path d=" M 652.259 298.304 L 634.11 286.607 L 679.083 274.097 L 652.259 298.304 Z  M 964.3 345.984 L 867.345 370.123 L 1002.004 294.695 L 980.793 336.835 L 1022.33 309.642 L 1090.931 174.404 L 961.353 262.727 L 971.515 209.706 L 858.875 309.642 L 880.049 262.727 L 777.57 348.973 C 819.918 365.065 841.937 410.424 777.57 414.553 C 759.437 415.716 742.72 414.415 728.061 411.951 C 716.392 382.237 701.251 346.493 698.014 325.419 C 693.836 298.255 736.812 281.628 736.812 281.628 L 776.046 264.941 L 722.721 266.732 L 772.997 235.057 L 587.687 289.562 L 573.063 314.546 C 573.063 314.546 639.073 289.909 635.451 325.419 C 633.291 346.585 617.999 382.178 605.998 411.832 C 591.183 414.372 574.246 415.732 555.84 414.553 C 491.476 410.424 513.495 365.065 555.84 348.973 L 453.365 262.727 L 474.536 309.642 L 361.896 209.706 L 372.06 262.727 L 242.483 174.404 L 311.081 309.642 L 352.618 336.835 L 331.406 294.695 L 466.068 370.123 L 369.114 345.984 L 388.152 370.123 L 306.847 337.589 L 350.886 407.884 L 388.152 420.588 L 377.142 401.108 L 475.384 406.19 L 400.856 426.984 L 433.036 436.742 L 355.123 451.923 L 409.323 504.039 L 438.967 498.502 L 415.253 488.79 L 500.792 462.084 L 453.284 493.422 L 471.996 496.81 L 414.405 530.685 L 484.7 544.237 L 555.84 504.039 L 505.025 556.093 L 536.361 549.319 L 488.088 591.489 L 548.219 573.757 L 571.084 530.685 L 636.461 628.992 L 654.783 656.546 L 613.849 898.222 L 666.705 964 L 719.564 898.222 L 678.628 656.546 L 762.327 530.685 L 785.195 573.757 L 845.325 591.489 L 797.05 549.319 L 828.385 556.093 L 777.57 504.039 L 848.713 544.237 L 919.006 530.685 L 861.417 496.81 L 880.129 493.422 L 832.622 462.084 L 918.16 488.79 L 894.446 498.502 L 924.088 504.039 L 978.291 451.923 L 900.374 436.742 L 932.558 426.984 L 858.029 406.19 L 956.271 401.108 L 945.261 420.588 L 982.524 407.884 L 1026.563 337.589 L 945.261 370.123 L 964.3 345.984 Z  M 535.725 799.974 L 636.461 628.992 L 535.725 733.978 L 535.725 799.974 Z  M 501.933 691.398 L 500.824 736.73 L 624.894 611.599 L 501.933 691.398 Z  M 798.146 799.974 L 798.146 733.978 L 697.413 628.992 L 798.146 799.974 Z  M 557.556 806.925 L 576.906 864.972 L 648.147 646.565 L 557.556 806.925 Z  M 756.967 864.972 L 776.315 806.925 L 685.725 646.565 L 756.967 864.972 Z  M 708.98 611.599 L 833.047 736.73 L 831.938 691.398 L 708.98 611.599 Z " fill="rgb(33,33,33)"/><path d=" M 652.259 298.304 L 634.11 286.607 L 679.083 274.097 L 652.259 298.304 Z  M 964.3 345.984 L 867.345 370.123 L 1002.004 294.695 L 980.793 336.835 L 1022.33 309.642 L 1090.931 174.404 L 961.353 262.727 L 971.515 209.706 L 858.875 309.642 L 880.049 262.727 L 777.57 348.973 C 819.918 365.065 841.937 410.424 777.57 414.553 C 759.437 415.716 742.72 414.415 728.061 411.951 C 716.392 382.237 701.251 346.493 698.014 325.419 C 693.836 298.255 736.812 281.628 736.812 281.628 L 776.046 264.941 L 722.721 266.732 L 772.997 235.057 L 587.687 289.562 L 573.063 314.546 C 573.063 314.546 639.073 289.909 635.451 325.419 C 633.291 346.585 617.999 382.178 605.998 411.832 C 591.183 414.372 574.246 415.732 555.84 414.553 C 491.476 410.424 513.495 365.065 555.84 348.973 L 453.365 262.727 L 474.536 309.642 L 361.896 209.706 L 372.06 262.727 L 242.483 174.404 L 311.081 309.642 L 352.618 336.835 L 331.406 294.695 L 466.068 370.123 L 369.114 345.984 L 388.152 370.123 L 306.847 337.589 L 350.886 407.884 L 388.152 420.588 L 377.142 401.108 L 475.384 406.19 L 400.856 426.984 L 433.036 436.742 L 355.123 451.923 L 409.323 504.039 L 438.967 498.502 L 415.253 488.79 L 500.792 462.084 L 453.284 493.422 L 471.996 496.81 L 414.405 530.685 L 484.7 544.237 L 555.84 504.039 L 505.025 556.093 L 536.361 549.319 L 488.088 591.489 L 548.219 573.757 L 571.084 530.685 L 636.461 628.992 L 654.783 656.546 L 613.849 898.222 L 666.705 964 L 719.564 898.222 L 678.628 656.546 L 762.327 530.685 L 785.195 573.757 L 845.325 591.489 L 797.05 549.319 L 828.385 556.093 L 777.57 504.039 L 848.713 544.237 L 919.006 530.685 L 861.417 496.81 L 880.129 493.422 L 832.622 462.084 L 918.16 488.79 L 894.446 498.502 L 924.088 504.039 L 978.291 451.923 L 900.374 436.742 L 932.558 426.984 L 858.029 406.19 L 956.271 401.108 L 945.261 420.588 L 982.524 407.884 L 1026.563 337.589 L 945.261 370.123 L 964.3 345.984 Z  M 535.725 799.974 L 636.461 628.992 L 535.725 733.978 L 535.725 799.974 Z  M 501.933 691.398 L 500.824 736.73 L 624.894 611.599 L 501.933 691.398 Z  M 798.146 799.974 L 798.146 733.978 L 697.413 628.992 L 798.146 799.974 Z  M 557.556 806.925 L 576.906 864.972 L 648.147 646.565 L 557.556 806.925 Z  M 756.967 864.972 L 776.315 806.925 L 685.725 646.565 L 756.967 864.972 Z  M 708.98 611.599 L 833.047 736.73 L 831.938 691.398 L 708.98 611.599 Z " fill="rgba(33,33,33 ,1)"/></g></svg>