<?xml version="1.0" encoding="UTF-8" standalone="no"?><!-- Generator: Gravit.io --><svg xmlns="http://www.w3.org/2000/svg" xmlns:xlink="http://www.w3.org/1999/xlink" style="isolation:isolate" viewBox="132.354 171.639 584.684 237.87" width="584.684pt" height="237.87pt"><defs><clipPath id="_clipPath_nPphFRzsUhy0QegZtyq5aSjFfACxiqAr"><rect x="132.354" y="171.639" width="584.684" height="237.87"/></clipPath></defs><g clip-path="url(#_clipPath_nPphFRzsUhy0QegZtyq5aSjFfACxiqAr)"><path d=" M 545.862 350.612 C 542.114 364.131 520.59 371.36 509.935 375.456 C 662.424 336.102 606.794 227.866 717.037 178.259 C 705.258 180.267 680.95 165.596 616.056 193.117 C 612.897 194.455 648.717 197.32 645.826 198.337 C 635.198 202.032 644.327 219.219 607.168 254.932 C 598.173 192.153 448.897 149.346 370.189 184.015 C 450.155 165.649 546.264 204.628 568.056 261.999 C 529.21 214.561 482.923 191.618 417.066 207.225 C 499.013 209.528 525.65 259.509 531.861 289.868 C 511.541 318.46 494.756 348.818 397.255 274.475 C 402.957 279.588 417.093 302.718 422.902 306.734 C 350.539 279.079 276.758 249.31 228.864 321.324 C 312.899 231.533 388.849 355.002 511.247 346.329 C 391.392 369.486 175.322 288.958 132.354 409.509 C 195.052 296.855 436.261 426.99 545.862 350.612 Z " fill="rgb(255,255,255)"/></g></svg>