<?xml version="1.0" encoding="UTF-8" standalone="no"?><!-- Generator: Gravit.io --><svg xmlns="http://www.w3.org/2000/svg" xmlns:xlink="http://www.w3.org/1999/xlink" style="isolation:isolate" viewBox="95.366 43.94 203.634 317.379" width="203.634pt" height="317.379pt"><defs><clipPath id="_clipPath_andsFqcLu67LnkaRcKmmXpbju2fYtwSb"><rect x="95.366" y="43.94" width="203.634" height="317.379"/></clipPath></defs><g clip-path="url(#_clipPath_andsFqcLu67LnkaRcKmmXpbju2fYtwSb)"><path d=" M 251.404 276.855 C 251.404 276.852 251.401 276.852 251.401 276.845 L 251.401 276.845 C 257.118 280.938 266.443 277.363 271.411 273.584 L 271.411 273.584 C 261.654 277.207 250.714 268.493 248.498 258.971 L 248.498 258.971 C 248.22 260.124 245.613 269.155 251.404 276.855 L 251.404 276.855 L 251.404 276.855 L 251.404 276.855 L 251.404 276.855 L 251.404 276.855 L 251.404 276.855 L 251.404 276.855 L 251.404 276.855 L 251.404 276.855 Z  M 139.946 280.187 C 128.286 283.992 129.709 308.819 132.078 319.475 L 132.078 319.475 C 134.447 314.74 136.024 309.999 140.366 306.447 L 140.366 306.447 C 145.103 302.499 150.235 300.529 154.183 295.392 L 154.183 295.392 C 156.552 292.632 161.006 280.277 159.023 273.609 L 159.023 273.609 C 155.448 275.641 150.304 276.592 139.946 280.187 L 139.946 280.187 L 139.946 280.187 L 139.946 280.187 L 139.946 280.187 L 139.946 280.187 L 139.946 280.187 L 139.946 280.187 L 139.946 280.187 L 139.946 280.187 Z  M 160.6 302.911 C 163.758 311.597 176.268 313.557 172.322 323.817 L 172.322 323.817 C 188.897 316.449 169.041 292.594 168.967 280.001 L 168.967 280.001 C 159.859 282.209 159.064 298.691 160.6 302.911 L 160.6 302.911 L 160.6 302.911 L 160.6 302.911 L 160.6 302.911 L 160.6 302.911 L 160.6 302.911 L 160.6 302.911 L 160.6 302.911 Z  M 185.764 316.317 C 185.764 304.868 188.13 300.529 194.45 291.843 L 194.45 291.843 C 196.602 288.968 200.067 283.476 198.886 279.834 L 198.886 279.834 C 197.266 278.976 195.763 278.585 194.383 278.582 L 194.383 278.582 C 182.853 278.58 179.654 305.831 185.764 316.317 L 185.764 316.317 L 185.764 316.317 L 185.764 316.317 L 185.764 316.317 L 185.764 316.317 L 185.764 316.317 L 185.764 316.317 Z  M 139.185 325.792 C 133.657 338.028 139.185 349.477 141.554 361.319 L 141.554 361.319 C 143.131 355.004 144.314 350.66 148.262 345.531 L 148.262 345.531 C 151.421 341.187 159.069 332.212 159.859 326.684 L 159.859 326.684 C 161.303 319.833 159.312 311.282 156.217 304.577 L 156.217 304.577 C 151.18 308.954 141.896 319.979 139.185 325.792 L 139.185 325.792 L 139.185 325.792 L 139.185 325.792 L 139.185 325.792 L 139.185 325.792 L 139.185 325.792 Z  M 143.527 210.921 C 149.052 211.71 151.421 212.104 155.371 216.446 L 155.371 216.446 C 158.527 219.211 163.728 224.83 168.075 225.622 L 168.075 225.622 C 175.194 227.046 179.245 219.591 181.885 214.831 L 181.885 214.831 C 181.128 214.762 179.273 214.846 177.251 214.935 L 177.251 214.935 C 174.428 215.053 171.284 215.173 170.37 214.869 L 170.37 214.869 C 162.304 213.673 157.858 209.316 151.045 209.316 L 151.045 209.316 C 148.85 209.316 146.412 209.766 143.527 210.921 L 143.527 210.921 L 143.527 210.921 L 143.527 210.921 L 143.527 210.921 L 143.527 210.921 Z  M 120.236 180.919 C 122.214 189.209 127.373 196.561 137.243 198.537 L 137.243 198.537 C 144.746 200.113 149.841 198.289 156.948 195.13 L 156.948 195.13 C 159.315 194.338 166.094 190.096 166.094 190.096 L 166.094 190.096 C 161.658 188.343 147.012 183.37 143.527 179.565 L 143.527 179.565 C 135.232 170.485 120.627 167.102 108.394 164.733 L 108.394 164.733 C 113.528 171.047 118.261 171.837 120.236 180.919 L 120.236 180.919 L 120.236 180.919 L 120.236 180.919 L 120.236 180.919 Z  M 95.366 120.129 C 104.05 119.731 110.76 121.703 115.105 129.6 L 115.105 129.6 C 119.05 137.494 122.605 144.999 131.288 148.546 L 131.288 148.546 C 139.188 151.314 149.841 150.522 157.342 146.576 L 157.342 146.576 C 159.378 145.671 164.022 142.523 166.094 141.143 L 166.094 141.143 C 158.116 137.698 147.552 126.873 143.131 123.285 L 143.131 123.285 C 136.706 118.363 127.146 116.34 117.599 116.34 L 117.599 116.34 C 109.546 116.34 101.507 117.778 95.366 120.129 L 95.366 120.129 L 95.366 120.129 L 95.366 120.129 Z  M 165.634 79.075 C 167.495 90.989 174.98 95.528 185.769 96 L 185.769 96 C 184.312 87.687 190.405 71.647 189.515 66.924 L 189.515 66.924 C 186.753 51.926 162.476 43.94 149.052 43.94 L 149.052 43.94 C 166.421 49.465 163.659 64.468 165.634 79.075 L 165.634 79.075 L 165.634 79.075 Z  M 112.736 83.811 C 119.152 91.582 138.096 99.011 145.04 106.928 L 145.04 106.928 C 147.672 96 153.887 80.118 149.445 71.572 L 149.445 71.572 C 146.685 65.654 137.21 64.07 131.685 61.31 L 131.685 61.31 C 123.788 57.76 121.026 51.834 118.657 44.334 L 118.657 44.334 C 102.473 51.044 103.262 72.756 112.736 83.811 L 112.736 83.811 Z  M 264.662 188.141 C 267.637 189.171 278.579 194.016 283.966 195.657 L 283.966 195.657 L 278.566 196.027 C 277.848 194.606 279.875 194.824 264.662 188.141 L 264.662 188.141 Z  M 196.027 82.612 C 195.786 88.099 201.158 97.626 214.186 95.257 L 214.186 95.257 C 206.289 109.072 155.164 113.958 157.735 88.804 L 157.735 88.804 C 155.456 92.448 149.052 110.257 156.946 123.283 L 156.946 123.283 C 160.822 129.682 166.189 132.35 173.526 134.335 L 173.526 134.335 C 178.874 135.782 183.602 134.031 188.892 133.594 L 188.892 133.594 C 189.957 142.98 181.736 150.184 173.526 155.653 L 173.526 155.653 C 163.232 162.509 154.807 161.993 149.65 161.48 L 149.65 161.48 C 147.927 161.308 146.568 161.137 145.627 161.237 L 145.627 161.237 C 149.466 170.516 154.536 177.911 165.138 179.851 L 165.138 179.851 C 170.042 180.743 175.506 179.869 180.346 178.941 L 180.346 178.941 C 184.839 178.085 188.396 175.356 192.416 174.255 L 192.416 174.255 C 191.422 191.18 173.684 195.036 160.896 199.081 L 160.896 199.081 C 164.241 200.74 174.292 211.662 187.737 209.318 L 187.737 209.318 C 194.869 208.069 200.762 205.084 207.038 201.869 L 207.038 201.869 C 203.747 210.261 196.832 217.394 187.739 217.705 L 187.739 217.705 C 199.183 225.523 206.622 226.524 217.245 223.45 L 217.245 223.45 C 222.91 221.81 227.763 218.539 233.229 216.489 L 233.229 216.489 C 229.182 230.271 221.293 234.211 214.976 236.179 L 214.976 236.179 C 202.942 239.941 188.94 244.63 171.946 245.261 L 171.946 245.261 C 150.631 246.053 128.523 255.131 117.867 277.238 L 117.867 277.238 C 128.92 271.314 137.21 268.549 149.839 270.525 L 149.839 270.525 C 161.497 272.081 167.799 268.276 174.77 259.122 L 174.77 259.122 C 168.834 267.233 170.152 284.823 179.843 289.474 L 179.843 289.474 C 181.419 281.971 184.974 276.05 192.475 273.287 L 192.475 273.287 C 199.972 270.921 207.473 270.921 207.079 260.658 L 207.079 260.658 C 207.45 272.434 213.654 278.041 219.931 286.423 L 219.931 286.423 C 216.813 280.284 223.368 270.969 228.001 267.762 L 228.001 267.762 C 220.503 275.656 231.556 289.87 239.053 293.023 L 239.053 293.023 C 248.133 296.581 262.786 293.882 269.057 290.263 L 269.057 290.263 C 231.888 282.209 248.133 245.261 253.267 238.947 L 253.267 238.947 C 254.943 236.93 257.68 246.414 257.68 246.414 L 257.68 246.414 C 257.68 246.414 259.492 239.396 262.178 232.916 L 262.178 232.916 L 262.28 233.079 C 262.273 233.059 262.372 234.04 262.894 235.021 L 262.894 235.021 C 263.538 236.235 264.823 237.449 267.345 236.769 L 267.345 236.769 C 265.889 223.826 268.94 212.152 268.909 212.022 L 268.909 212.022 C 275.173 212.014 279.261 207.113 285.619 206.814 L 285.619 206.814 C 286.677 207.144 287.787 206.298 289.266 205.452 L 289.266 205.452 C 291.413 204.223 294.334 202.996 299 205.36 L 299 205.36 C 294.543 196.628 290.728 198.667 289.463 197.182 L 289.463 197.182 C 286.115 193.87 284.561 190.76 284.561 190.76 L 284.561 190.76 C 284.561 190.76 277.508 183.955 269.129 184.581 L 269.129 184.581 C 264.258 184.947 256.428 184.809 258.861 177.022 L 258.861 177.022 C 256.855 179.299 254.169 183.191 254.757 186.283 L 254.757 186.283 C 255.322 188.987 258.746 191.389 257.407 191.693 L 257.407 191.693 C 251.253 189.539 245.595 184.561 242.271 179.595 L 242.271 179.595 C 236.838 171.487 237.602 161.245 239.064 152.101 L 239.064 152.101 C 242.174 132.613 248.463 87.577 226.028 78.677 L 226.028 78.677 C 208.127 71.572 204.273 57.995 200.409 56.631 L 200.409 56.631 C 208.219 64.869 196.41 73.967 196.027 82.612 L 196.027 82.612 Z " fill-rule="evenodd" fill="rgb(0,0,0)"/></g></svg>